<?xml version="1.0" encoding="utf-8"?>
<!-- Generator: Adobe Illustrator 16.0.0, SVG Export Plug-In . SVG Version: 6.00 Build 0)  -->
<!DOCTYPE svg PUBLIC "-//W3C//DTD SVG 1.1//EN" "http://www.w3.org/Graphics/SVG/1.1/DTD/svg11.dtd">
<svg version="1.1" id="Layer_1" xmlns="http://www.w3.org/2000/svg" xmlns:xlink="http://www.w3.org/1999/xlink" x="0px" y="0px"
	 width="89.667px" height="89.667px" viewBox="0 0 89.667 89.667" enable-background="new 0 0 89.667 89.667" xml:space="preserve">
<g>
	<path fill="#005385" d="M60.285,21.456c-8.676-1.828-17.983,1.656-23.185,9.496c-4.145,6.247-4.73,13.808-2.239,20.313
		c-8.4-6.012-11.739-17.29-7.413-27.119C31,16.073,38.755,11.159,47.011,10.838L60.285,21.456z"/>
	<path fill="#231F20" d="M21.943,29.441c-1.827,8.679,1.658,17.983,9.496,23.187c6.248,4.144,13.809,4.73,20.314,2.238
		c-6.01,8.4-17.289,11.738-27.119,7.415c-8.071-3.555-12.987-11.308-13.308-19.564L21.943,29.441z"/>
	<path fill="#005385" d="M29.929,67.783c8.679,1.829,17.983-1.656,23.187-9.494c4.146-6.249,4.73-13.808,2.239-20.314
		c8.4,6.012,11.738,17.289,7.413,27.121c-3.551,8.069-11.308,12.987-19.563,13.306L29.929,67.783z"/>
	<path fill="#231F20" d="M68.272,59.798c1.829-8.678-1.656-17.983-9.495-23.185c-6.248-4.147-13.809-4.73-20.314-2.24
		c6.012-8.4,17.291-11.738,27.12-7.413c8.071,3.552,12.986,11.307,13.307,19.564L68.272,59.798z"/>
</g>
</svg>
